<svg xmlns="http://www.w3.org/2000/svg" viewBox="0 0 32 32" width="32" height="32">
  <defs>
    <linearGradient id="grad1" x1="0%" y1="0%" x2="100%" y2="100%">
      <stop offset="0%" style="stop-color:#2563eb;stop-opacity:1" />
      <stop offset="100%" style="stop-color:#1d4ed8;stop-opacity:1" />
    </linearGradient>
  </defs>
  
  <!-- Background circle -->
  <circle cx="16" cy="16" r="15" fill="url(#grad1)"/>
  
  <!-- WordPress "W" symbol - simplified -->
  <path d="M8 12c0-2.2 1.8-4 4-4s4 1.8 4 4c0 1.1-.4 2.1-1.1 2.8L16 18l-1.1-3.2C14.2 14.1 14 13.1 14 12c0-1.1.4-2.1 1.1-2.8L16 6l1.1 3.2C17.8 9.9 18 10.9 18 12c0 2.2-1.8 4-4 4s-4-1.8-4-4z" fill="white"/>
  
  <!-- Code brackets for developer -->
  <path d="M6 8l2-2 2 2-2 2-2-2zM6 24l2-2 2 2-2 2-2-2z" fill="white" opacity="0.8"/>
  <path d="M26 8l-2-2-2 2 2 2 2-2zM26 24l-2-2-2 2 2 2 2-2z" fill="white" opacity="0.8"/>
</svg>